<svg width="146" height="29" viewBox="0 0 146 29" fill="none" xmlns="http://www.w3.org/2000/svg">
<path fill-rule="evenodd" clip-rule="evenodd" d="M124 20C126.49 20 128.46 17.31 128.46 14V6H130.46V14C130.46 18.4 127.58 21.95 124.04 21.95C120.5 21.95 117.62 18.4 117.62 14V6H119.62V14C119.54 17.36 121.51 20.05 123.99 20.05L124 20ZM75.83 22.07H73.83V20.64C72.5402 21.5428 71.0044 22.028 69.43 22.03C65.7302 22.0548 62.4961 19.5393 61.6095 15.9472C60.723 12.3551 62.4152 8.62371 65.7016 6.92416C68.988 5.22461 73.0111 6.00035 75.43 8.8L73.96 10.11C72.1209 8.05387 69.1168 7.51667 66.6792 8.80802C64.2415 10.0994 62.9984 12.8865 63.6665 15.563C64.3345 18.2395 66.7414 20.1156 69.5 20.11C71.1817 20.1135 72.7812 19.3831 73.88 18.11H68.48V16.11H75.85L75.83 22.07ZM42 6.13H40V22.05H48V20.05H42V6.13ZM54.23 18.13C57.5437 18.13 60.23 15.4437 60.23 12.13C60.23 8.81629 57.5437 6.13 54.23 6.13C52.6387 6.13 51.1126 6.76214 49.9874 7.88736C48.8621 9.01258 48.23 10.5387 48.23 12.13C48.23 15.4437 50.9163 18.13 54.23 18.13ZM54.23 16.13C56.4391 16.13 58.23 14.3391 58.23 12.13C58.23 9.92086 56.4391 8.13 54.23 8.13C52.0209 8.13 50.23 9.92086 50.23 12.13C50.241 14.3313 52.0286 16.11 54.23 16.11V16.13ZM58.23 22.07V20.07H50.23V22.07H58.23ZM89.19 12.17C89.19 8.85629 86.5037 6.17 83.19 6.17L83.21 6.13C81.6083 6.12463 80.0709 6.7599 78.9402 7.89437C77.8095 9.02884 77.1793 10.5683 77.19 12.17C77.19 15.4837 79.8763 18.17 83.19 18.17C86.5037 18.17 89.19 15.4837 89.19 12.17ZM83.19 16.17C85.3991 16.17 87.19 14.3791 87.19 12.17C87.19 9.96086 85.3991 8.17 83.19 8.17C80.9809 8.17 79.19 9.96086 79.19 12.17C79.2229 14.3635 81.0163 16.1212 83.21 16.11L83.19 16.17ZM87.19 22.11V20.11H79.19V22.11H87.19ZM91.32 6.13H93.32V22.03H91.32V6.13ZM98.09 6.13H96.09V22.06H98.09V18.06H98.4C100.685 18.3079 102.912 17.2283 104.132 15.2802C105.352 13.3321 105.352 10.8579 104.132 8.90981C102.912 6.96169 100.685 5.88206 98.4 6.13C98.297 6.11907 98.193 6.11907 98.09 6.13ZM98.09 8.13V8.17665L98.08 8.18L98.09 8.13ZM98.09 8.17665C98.1906 8.14332 98.2946 8.12098 98.4 8.11C99.9423 7.90462 101.464 8.61227 102.3 9.92413C103.137 11.236 103.137 12.914 102.3 14.2259C101.464 15.5377 99.9423 16.2454 98.4 16.04H98.09V8.17665ZM112.467 7.30615L112.5 7.28L112.49 7.33L112.467 7.30615ZM109.68 6.18C110.726 6.14911 111.737 6.55791 112.467 7.30615L111.02 8.45C110.499 7.90531 109.709 7.71198 108.995 7.95426C108.281 8.19653 107.772 8.83053 107.69 9.58V9.74C107.69 10.62 108.3 11.21 109.49 11.29C114.07 11.57 116.17 13.72 116.17 16.56V16.74C115.929 19.0354 114.371 20.9793 112.183 21.715C109.995 22.4507 107.579 21.8431 106 20.16L107.53 18.98C108.251 19.7525 109.275 20.1693 110.33 20.12C112.331 20.2255 114.06 18.7349 114.25 16.74V16.6C114.25 13.93 111.63 13.44 109.36 13.22C107.26 13.02 105.75 11.71 105.75 9.82V9.74C105.904 7.69653 107.631 6.13164 109.68 6.18ZM143.81 22H145.81L145.79 6.13L139.19 14.82L132.59 6.13V22.03H134.59V12.1L139.2 18.1L143.81 12.1V22Z" fill="black"/>
<path d="M27.2468 2.65615C25.7169 0.943269 23.6113 1.88351e-05 21.3178 1.88351e-05C19.5246 1.88351e-05 17.5907 1.06686 16.1777 1.84634C15.6632 2.1303 14.9598 2.51851 14.7519 2.54407C14.5449 2.51895 13.845 2.13174 13.3318 1.84786C11.9224 1.06802 9.99209 1.88351e-05 8.18632 1.88351e-05C5.89271 1.88351e-05 3.78705 0.943269 2.25705 2.65615C0.801559 4.2857 0 6.43067 0 8.6959C0 11.9319 1.16205 16.5338 3.10842 21.0063C3.97435 22.9962 4.8961 24.7157 5.77397 25.9788C6.81887 27.4823 7.71556 28.2131 8.51539 28.2131C8.8703 28.2131 9.52018 28.0626 9.88479 27.0542C10.2391 26.0743 10.5578 24.9495 10.8958 23.7565C11.7903 20.5993 12.9034 16.6699 14.6955 16.6699H14.8086C15.6054 16.6699 16.3186 17.3524 16.989 18.7564C17.6531 20.1472 18.1579 21.9965 18.6469 23.7872C18.97 24.9711 19.2753 26.089 19.6182 27.0515C19.9754 28.0537 20.618 28.2035 20.9696 28.2038C21.7655 28.2037 22.6613 27.4617 23.7085 25.9355C24.5841 24.6593 25.5078 22.9228 26.3797 20.9136C28.336 16.4051 29.504 11.8378 29.504 8.69583C29.504 6.4306 28.7024 4.28562 27.2468 2.65615ZM20.7646 4.97909C20.7462 4.97786 18.8935 4.88916 17.2069 4.44252C16.4463 4.24117 15.5471 3.83659 15.5471 3.71655C15.5471 3.59969 16.5241 3.03083 16.7597 2.90079C18.0574 2.18489 19.8345 1.20442 21.3178 1.20442C25.688 1.20442 28.2996 5.0134 28.2996 8.6959C28.2996 11.6369 27.1406 16.1347 25.2747 20.4341C24.4452 22.3458 23.5362 24.0576 22.7153 25.254C21.7682 26.6345 21.1553 27.0358 20.9696 26.9993C20.8557 26.9768 20.8415 26.896 20.7529 26.647C20.4248 25.7267 20.1253 24.6297 19.8082 23.4683C19.3059 21.6286 18.7867 19.7261 18.0758 18.2373C17.1852 16.3721 16.1165 15.4654 14.8086 15.4654H14.6955C13.4356 15.4654 12.3916 16.3648 11.5039 18.2151C10.7954 19.6918 10.2573 21.5912 9.73702 23.4281C9.40542 24.5985 9.09228 25.7042 8.75221 26.6445C8.67713 26.8521 8.65396 26.9876 8.51539 27.0086C8.40678 27.0251 7.9429 26.9891 6.76297 25.2914C5.9415 24.1094 5.03583 22.4169 4.21277 20.5256C2.35711 16.2616 1.2044 11.7287 1.2044 8.69583C1.2044 5.01333 3.81601 1.20435 8.18632 1.20435C9.3223 1.20435 10.8152 1.72195 12.1796 2.58896C12.3798 2.71617 12.6615 2.93272 12.9341 3.14225C13.0428 3.22588 13.15 3.3082 13.2497 3.38328C13.5696 3.62286 14.0018 3.93614 14.5094 4.23494C14.7258 4.36266 14.9951 4.52165 15.281 4.643C16.3747 5.10724 17.5343 5.34262 18.7275 5.34262C19.9433 5.34262 20.7611 5.12635 20.7692 5.12382C20.7692 5.12382 20.9521 5.07545 20.9463 5.02789C20.9405 4.98032 20.7646 4.97909 20.7646 4.97909Z" fill="#0096FF"/>
</svg>
